<!-- <svg height="512" viewBox="0 0 512 512" width="512" xmlns="http://www.w3.org/2000/svg" xmlns:xlink="http://www.w3.org/1999/xlink"><linearGradient id="a" x1="100%" x2="50%" y1="5.663%" y2="50%"><stop offset="0" stop-color="#007b55"/><stop offset="1" stop-color="#00ab55"/></linearGradient><linearGradient id="b" x1="50%" x2="50%" y1="0%" y2="100%"><stop offset="0" stop-color="#5be584"/><stop offset="1" stop-color="#00ab55"/></linearGradient><g fill="none" fill-rule="evenodd" transform="translate(14 128)"><path d="m92.8065878 83.1065019c44.2888442 22.8889511 46.3079382 23.9345951 46.4006692 23.9799821.012248.008728.642121.333419 44.792743 23.152545-26.071507 48.53952-42.693165 77.265922-49.868472 86.179207-10.758587 13.369926-22.495227 23.492946-36.929824 29.333888-30.3458978 14.261953-68.070062 14.928791-97.201704-2.704011z" fill="url(#a)"/><g fill="url(#b)"><path d="m430.310491 101.726093c-46.270793-80.9559274-94.100378-157.2284394-149.043472-45.3437359-7.516227 14.3833977-12.994566 42.3366008-25.267019 42.3366008v-.1420279c-12.272453 0-17.749057-27.9532032-25.265283-42.3366009-54.94483-111.8847034-102.774415-35.6121915-149.0452076 45.3437359-3.4821132 6.105448-6.8270943 11.9321-9.6895094 16.99601 106.037811-67.1266136 97.11034 135.666494 184 137.277897v.142028c86.891396-1.611403 77.962189-204.4045106 184-137.27965-2.860679-5.062157-6.20566-10.888809-9.689509-16.994257"/><path d="m436 256c26.5088 0 48-21.4912 48-48s-21.4912-48-48-48-48 21.4912-48 48 21.4912 48 48 48"/></g></g></svg> -->
<svg xmlns="http://www.w3.org/2000/svg" viewBox="0 0 3935.72 1529.02"><defs><style>.cls-1{fill:#524944;fill-rule:evenodd;}.cls-2,.cls-3{fill:#01a0e2;}.cls-2{stroke:#01a0e2;stroke-miterlimit:10;stroke-width:5px;}</style></defs><path class="cls-1" d="M881.59,1357.71a33.82,33.82,0,0,1-33.83-33.86V1002.44a33.83,33.83,0,1,1,67.66,0v321.41a33.84,33.84,0,0,1-33.83,33.86M725,1414.35a33.81,33.81,0,0,1-33.82-33.86V1145.67a33.83,33.83,0,1,1,67.65,0v234.82A33.84,33.84,0,0,1,725,1414.35Zm313.13,0a33.84,33.84,0,0,1-33.84-33.86V1145.67a33.84,33.84,0,1,1,67.67,0v234.82A33.82,33.82,0,0,1,1038.14,1414.35Z" transform="translate(-307.98 -274.89)"/><path class="cls-1" d="M701.18,1447.68l113,218.9a197.31,197.31,0,0,1,68.78-12.51h.46a194,194,0,0,1,66.45,11.58L1062,1448.05a166.75,166.75,0,0,1-19.18,1.12c-47.64,0-72.81-17.16-98-34.08-16.95-11.6-34-23-61.67-23-27.37,0-44.44,11.43-61.48,23-25.08,16.92-50.25,34.08-97.89,34.08a170.88,170.88,0,0,1-22.59-1.49m131.15,254.13,49.36,95.71L931.53,1701a148.91,148.91,0,0,0-48.14-7.88h-.46A153.4,153.4,0,0,0,832.33,1701.81Z" transform="translate(-307.98 -274.89)"/><path class="cls-1" d="M825,1696.48l55.39,107.43,56-108.3a166.93,166.93,0,0,0-54-8.85h-.52A172,172,0,0,0,825,1696.48Z" transform="translate(-307.98 -274.89)"/><path class="cls-1" d="M469.83,786.62c9.75,26.71,31.72,47.63,65,47.63h693.44c35,0,56.24-20.92,65.52-47.63M1228.23,902H534.79c-79,0-138.57-64.16-138.57-149.23V718.89h970.72v33.86C1366.94,839.25,1308.58,902,1228.23,902Z" transform="translate(-307.98 -274.89)"/><path class="cls-1" d="M682.77,1171.46a111.24,111.24,0,0,1,0-222.47,33.85,33.85,0,0,1,0,67.7,43.53,43.53,0,1,0,0,87c16.45,0,32.41-10.34,39.6-25.64a33.84,33.84,0,1,1,61.27,28.74c-18.38,39.26-58,64.62-100.87,64.62m397.73,0c-43,0-82.65-25.36-101-64.62a33.83,33.83,0,1,1,61.26-28.74c7.17,15.3,23.16,25.64,39.73,25.64a43.53,43.53,0,0,0,0-87,33.85,33.85,0,0,1,0-67.7c61.26,0,111,49.88,111,111.21S1141.76,1171.46,1080.5,1171.46Z" transform="translate(-307.98 -274.89)"/><path class="cls-1" d="M881.56,525.1a47.88,47.88,0,0,1,26,88.15l12.87,104.68H842.64l12.88-104.68a47.88,47.88,0,0,1,26-88.15M663.34,730.41h436.43V550.83c-105.12-124.6-340.16-118.71-436.43,0ZM560.55,411.2l-1.92.25V412ZM530.36,605V576.13l-.13,0v-152l.13,0V399a14.15,14.15,0,0,1,12.35-14l113.53-14.39,225.32-95.66,573.58,243.54L1138,600.71V545.53l-4.32-11.83A258.85,258.85,0,0,0,1098,499c-60.15-48.79-141.19-72.13-220.89-71.35S718,453.56,661.51,501.27A236.24,236.24,0,0,0,629.33,534l-4.16,11.49v55.18l-66.54-17.26v21.7a24.86,24.86,0,0,1-1.62,42,35.11,35.11,0,0,1,10.81,8.16l8.59,81.07a51.38,51.38,0,0,1-64.12,0l8.72-81a35.57,35.57,0,0,1,10.74-8.19A24.92,24.92,0,0,1,530.36,605ZM308,518.43l194-82.37V568.74Z" transform="translate(-307.98 -274.89)"/><path class="cls-1" d="M971.59,1016.13H632.15c-30.57,0-74.51-11.49-106.14-43.76-25.73-26.2-38.86-61.92-38.08-103.32l67.68,1.27c-.42,23.46,5.68,41.34,18.72,54.62,18.19,18.53,44.88,23.46,57.82,23.46H1131c12.93,0,39.66-4.93,57.85-23.46,13-13.28,19.15-31.16,18.71-54.62l67.69-1.27c.75,41.4-12.36,77.12-38.11,103.32-31.6,32.27-75.57,43.76-106.14,43.76" transform="translate(-307.98 -274.89)"/><path class="cls-2" d="M1744.88,825.94v614h-50.4v-614Z" transform="translate(-307.98 -274.89)"/><path class="cls-2" d="M1874.64,825.94v614h-50.39v-614Z" transform="translate(-307.98 -274.89)"/><path class="cls-3" d="M2437.76,943.5h-63v402.94h-49.46V1203.13l-1.2-.3a119.39,119.39,0,0,1-45,25.63,166.75,166.75,0,0,1-49.17,7.65q-25.78,0-47.07-7.5a95,95,0,0,1-36.58-22.93q-15.29-15.43-23.83-39t-8.55-55.91V943.5h-66.85V899.43h390.64Zm-112.42,0h-162.8v164.59a165.49,165.49,0,0,0,3.15,33.88q3.15,15,10.79,25.48a48.73,48.73,0,0,0,20.24,16q12.59,5.55,31.48,5.55,30.87,0,55.76-14.54a129.31,129.31,0,0,0,41.38-38.23Z" transform="translate(-307.98 -274.89)"/><path class="cls-3" d="M2737.87,943.5h-113a305.51,305.51,0,0,1,24.73,53.82,169.62,169.62,0,0,1,9.45,55.61,130.27,130.27,0,0,1-6.45,40.92,109.91,109.91,0,0,1-18.89,35.08,97.46,97.46,0,0,1-30.88,25.18q-18.43,9.75-42.42,11l-.6,1.49a618.26,618.26,0,0,0,60.56,79.3,562.79,562.79,0,0,0,77.65,70.91l-32.08,36.87a495.14,495.14,0,0,1-48.41-40.92q-23-22-43.33-45.57t-37.92-47.67q-17.53-24.13-32.08-47.07t-25.93-44.07q-11.4-21.13-19.49-38.53l41.07-22.18q10.8,23.39,24.44,36.73t31.63,13.34a41.55,41.55,0,0,0,23.08-6.6,58.68,58.68,0,0,0,17.09-16.94,81.9,81.9,0,0,0,10.49-22.78,87.63,87.63,0,0,0,3.6-24.44,108.27,108.27,0,0,0-3.6-27.73,184.48,184.48,0,0,0-9.29-26.68,263.14,263.14,0,0,0-12.74-25.34q-7-12.28-13.64-23.68h-154.1V899.43h321.09Z" transform="translate(-307.98 -274.89)"/><path class="cls-3" d="M2897.36,943.5h-63v402.94h-49.16V943.5h-68.36V899.43H2790q-5.4-30.58-13.79-52.32T2758,810.84q-9.88-14.55-20.68-22.94a92.89,92.89,0,0,0-20.84-12.59,75.56,75.56,0,0,0-18.89-5.4,114,114,0,0,0-14.54-1.2q-18.59,0-29.83,5.85t-17.24,13.94a44.59,44.59,0,0,0-7.94,16.94,72,72,0,0,0-1.95,15.14q0,2.4.75,9.74t4.8,18.44A143,143,0,0,0,2644,873.65q8.4,13.79,23.68,29.08h-51q-18.9-21.59-28.34-44.82T2579,812.79a92.73,92.73,0,0,1,6.6-34.78,77.6,77.6,0,0,1,19.78-28.63q13.2-12.15,33-19.34t45.87-7.2q36,0,62.06,13.94a131.28,131.28,0,0,1,43.92,37.93q17.84,24,28.18,56.21a358.57,358.57,0,0,1,14.54,68.51h64.46Z" transform="translate(-307.98 -274.89)"/><path class="cls-3" d="M3225.65,899.43h112.13V943.5h-63v402.94h-49.17V1085.91q-30.29,12.3-56.51,17.09a280.75,280.75,0,0,1-50.52,4.79,226,226,0,0,1-45.72-4.19,196.08,196.08,0,0,1-38.23-12,300.52,300.52,0,0,0-25,18.89,140.83,140.83,0,0,0-21.59,22.64,111.58,111.58,0,0,0-15.29,27.73,95.19,95.19,0,0,0-5.84,34.18,118,118,0,0,0,2.85,24.28,67.64,67.64,0,0,0,11.54,25.63q8.68,12.15,25,20.39t43.32,8.25a150.91,150.91,0,0,0,19-1.2,68.78,68.78,0,0,0,16.34-3.9,111.23,111.23,0,0,1-1.8-11.54,119,119,0,0,1,2.55-39.13,82.29,82.29,0,0,1,9.59-24.13,54.09,54.09,0,0,1,16.34-17.24,40.63,40.63,0,0,1,23.09-6.6,36.46,36.46,0,0,1,30.28,14.39,45.85,45.85,0,0,1,7.64,15.44,67.39,67.39,0,0,1,2.55,18.74,75,75,0,0,1-3,21.29,91.93,91.93,0,0,1-7.94,19,105.25,105.25,0,0,1-11.39,16.49,129.7,129.7,0,0,1-13.64,14,179.34,179.34,0,0,0,12,22.93,153.46,153.46,0,0,0,13,18,158.41,158.41,0,0,0,13.79,14.39q7,6.43,13.94,12.14l-36.88,38.68a210.08,210.08,0,0,1-23.53-25.64,248.36,248.36,0,0,1-16.34-23.83,227.05,227.05,0,0,1-10.79-20.09q-4.2-9-6.9-14.39a85.84,85.84,0,0,1-22.33,5.85,177.45,177.45,0,0,1-23.24,1.65q-29.39,0-53.81-9.45a121,121,0,0,1-41.83-26.53,118.85,118.85,0,0,1-27-40.92q-9.6-23.84-9.59-52.32,0-24.59,6.74-43.62a124.92,124.92,0,0,1,17.84-33.73,146.3,146.3,0,0,1,25-25.93q13.94-11.25,28-20.54l.3-1.2q-22.49-18-32.38-38.82a99.81,99.81,0,0,1-9.9-43.33q0-20.07,7.05-36.42a85.8,85.8,0,0,1,46.62-46.17,83.87,83.87,0,0,1,32.38-6.45,86.28,86.28,0,0,1,31.78,6,84.85,84.85,0,0,1,27.28,17.24,83.33,83.33,0,0,1,19.19,27.58Q3127,960.6,3127,981a87.5,87.5,0,0,1-3.29,24.88,82.25,82.25,0,0,1-9.15,20.39,89.47,89.47,0,0,1-14.24,17.24,185.27,185.27,0,0,1-18.29,15.14l.3,1.19a145.74,145.74,0,0,0,17.69,2.55q9,.75,17.39.75a220.76,220.76,0,0,0,51.87-6.59q27.27-6.6,56.36-23.69Zm-146.31,81.25a48.36,48.36,0,0,0-2.84-16.94,38.64,38.64,0,0,0-8.1-13.19,36.81,36.81,0,0,0-12.14-8.55,37.33,37.33,0,0,0-15-3,44.34,44.34,0,0,0-12.59,2,34.26,34.26,0,0,0-12.45,6.9,37,37,0,0,0-9.59,13.19q-3.75,8.25-3.75,20.84,0,18.89,8.85,32.52t26.83,24.14q8.38-5.7,15.89-11.69a80.85,80.85,0,0,0,13-13,58.7,58.7,0,0,0,8.7-15.14A49.18,49.18,0,0,0,3079.34,980.68Z" transform="translate(-307.98 -274.89)"/><path class="cls-3" d="M3497.27,943.5h-63v402.94h-49.17V943.5h-68.35V899.43h180.48Z" transform="translate(-307.98 -274.89)"/><path class="cls-3" d="M3679,990.87a156.84,156.84,0,0,1-5.39,41.37,126.53,126.53,0,0,1-43,66.11,139.1,139.1,0,0,1-37.62,21.44q4.5,20.39,12.59,34.62a85.17,85.17,0,0,0,19.19,23.54,70.57,70.57,0,0,0,24.58,13.49,95.31,95.31,0,0,0,28.48,4.2,115.5,115.5,0,0,0,55.62-13.8,125.44,125.44,0,0,0,43-38.07V899.43h112.13V943.5h-63v402.94h-49.17V1206.13l-1.2-.3a138.63,138.63,0,0,1-18.59,13,149.43,149.43,0,0,1-23.83,11.39,188,188,0,0,1-28,8.1,151.33,151.33,0,0,1-31.18,3.15q-33.58,0-57.42-13a123.53,123.53,0,0,1-39.87-34.32,169.88,169.88,0,0,1-25.18-48.42,300.78,300.78,0,0,1-13-55.62q26.37-5.38,44.22-15.59T3610.9,1051a84,84,0,0,0,15.44-28.78,108.37,108.37,0,0,0,4.64-31.33q0-26.39-10.34-39.72t-25.93-13.35q-13.8,0-22.19,9.3t-8.39,23.68a43.26,43.26,0,0,0,.6,6.6,31.49,31.49,0,0,0,3,8.84,63.31,63.31,0,0,0,7.19,11.1,93.13,93.13,0,0,0,12.89,13L3561.13,1043a90,90,0,0,1-22.49-16.64,78.34,78.34,0,0,1-13.49-18.74,73.84,73.84,0,0,1-6.59-18.74,88,88,0,0,1-1.8-16.94,84.1,84.1,0,0,1,4.95-28.33,76.33,76.33,0,0,1,14.84-25.18,73.38,73.38,0,0,1,24.88-18.14q15-6.9,35.08-6.9t35.37,7.2a72.69,72.69,0,0,1,25.79,20.09,88.9,88.9,0,0,1,15.89,30.73A136,136,0,0,1,3679,990.87Z" transform="translate(-307.98 -274.89)"/><path class="cls-3" d="M3880.42,768.41q-13.2-15-24.58-21.88t-26.68-6.9q-23.38,0-37.48,16t-14.09,45.12a123.55,123.55,0,0,0,2.7,25,167.09,167.09,0,0,0,7.79,26.23,183.79,183.79,0,0,0,12.59,26.08,187.35,187.35,0,0,0,17.09,24.59H3768a202.05,202.05,0,0,1-27-52.32,164.21,164.21,0,0,1-9-52.32q0-24.57,7.94-44.07t21.14-32.68a91.08,91.08,0,0,1,30.73-20.23,98.36,98.36,0,0,1,37-7.05q26.07,0,46.62,10.35T3914,737.53Z" transform="translate(-307.98 -274.89)"/><path class="cls-2" d="M4111.4,825.94v614H4061v-614Z" transform="translate(-307.98 -274.89)"/><path class="cls-2" d="M4241.2,825.94v614h-50.41v-614Z" transform="translate(-307.98 -274.89)"/></svg>