<svg version="1.0" xmlns="http://www.w3.org/2000/svg"
 width="585.000000pt" height="765.000000pt" viewBox="0 0 585.000000 765.000000"
 preserveAspectRatio="xMidYMid meet">

<g transform="translate(0.000000,765.000000) scale(0.100000,-0.100000)"
fill="#000000" stroke="none">
<path d="M2370 7187 l-525 -223 -265 -33 c-253 -31 -296 -40 -312 -65 -4 -6
-8 -233 -8 -505 l0 -493 -25 -30 c-17 -20 -25 -42 -25 -66 0 -40 32 -102 52
-102 7 0 -1 -8 -17 -19 -31 -18 -31 -19 -44 -152 -6 -74 -14 -142 -17 -151 -5
-17 -27 -18 -280 -18 l-274 0 0 -123 c0 -141 11 -215 46 -307 64 -171 170
-289 332 -371 l55 -28 19 -73 c10 -40 34 -107 55 -148 59 -123 194 -240 336
-295 37 -14 46 -22 41 -34 -37 -88 -47 -126 -51 -201 -9 -152 42 -285 152
-395 92 -92 190 -137 326 -150 l74 -7 0 -511 c0 -467 2 -515 17 -544 60 -109
225 -108 278 2 19 40 20 62 20 619 l0 577 39 47 c56 67 91 138 91 185 0 89
-84 166 -171 154 -51 -7 -82 -28 -119 -80 -74 -103 -111 -127 -200 -127 -49 0
-75 6 -105 23 -113 64 -138 216 -52 314 64 73 63 73 525 73 l412 0 0 -737 c0
-715 1 -738 20 -777 11 -23 35 -51 54 -64 68 -46 179 -20 222 51 18 31 19 64
22 780 l3 747 399 0 c255 0 409 -4 427 -11 114 -42 167 -149 133 -268 -21 -74
-105 -131 -193 -131 -67 0 -135 41 -172 104 -32 55 -61 81 -107 95 -99 32
-198 -44 -198 -152 0 -47 46 -136 101 -192 l29 -31 0 -582 c0 -552 1 -585 19
-620 53 -105 210 -108 268 -6 23 39 23 40 23 552 l0 512 43 0 c107 1 244 50
332 120 76 60 151 178 174 274 20 81 15 211 -11 291 -12 39 -22 74 -23 79 0 4
22 17 50 28 75 29 178 102 235 166 61 68 115 176 138 273 l17 71 60 28 c165
75 299 240 350 430 19 71 34 372 19 369 -5 -1 -289 -1 -631 0 l-623 1 0 399 0
399 -84 78 c-255 241 -637 360 -1061 333 -331 -22 -642 -154 -842 -356 l-63
-64 0 -395 0 -394 -210 0 c-161 0 -210 3 -210 13 0 6 -7 73 -15 147 -13 121
-17 137 -39 156 -24 22 -24 22 -6 39 44 40 46 131 4 165 -9 8 -14 31 -14 65
l0 53 150 -39 c83 -21 153 -39 155 -39 3 0 5 60 5 133 0 129 1 134 28 178 37
57 164 176 252 234 159 106 409 202 620 240 132 23 362 30 490 16 366 -42 652
-163 897 -380 123 -109 133 -130 133 -295 0 -117 1 -127 18 -122 32 9 1397
359 1420 364 12 2 24 7 26 11 3 4 -201 94 -452 201 -251 106 -612 260 -802
340 -1165 497 -1409 600 -1421 600 -8 0 -250 -101 -539 -223z m611 -958 c155
-52 203 -247 92 -370 l-37 -41 27 -231 c15 -128 27 -238 27 -244 0 -10 -44
-13 -186 -13 -172 0 -185 1 -181 18 3 9 18 119 33 244 l28 228 -36 37 c-86 88
-88 214 -7 307 59 67 156 93 240 65z m1869 -1225 c0 -4 -14 -31 -31 -60 -38
-67 -97 -118 -163 -141 -48 -17 -146 -18 -1751 -18 l-1700 0 -67 33 c-70 34
-108 73 -147 150 l-21 42 1940 0 c1067 0 1940 -3 1940 -6z m-430 -539 c0 -3
-9 -23 -19 -44 -26 -50 -91 -108 -160 -140 l-56 -26 -1275 0 -1275 0 -65 31
c-84 40 -170 126 -170 172 0 9 309 12 1510 12 831 0 1510 -2 1510 -5z"/>
<path d="M705 6482 c-214 -92 -412 -177 -440 -189 l-49 -21 39 -10 c22 -6 216
-56 430 -111 215 -56 400 -104 413 -107 l22 -6 0 306 c0 239 -3 306 -12 305
-7 0 -188 -76 -403 -167z"/>
<path d="M2810 2142 c-44 -11 -98 -39 -168 -85 -199 -130 -289 -162 -462 -162
l-115 0 54 -105 c193 -375 472 -914 475 -917 1 -2 28 6 59 16 75 26 243 45
332 38 38 -3 108 -16 154 -27 47 -13 87 -18 92 -13 4 4 123 231 263 503 l255
495 -107 6 c-168 10 -266 46 -449 166 -50 33 -113 68 -139 77 -76 26 -169 29
-244 8z"/>
<path d="M2780 759 c-64 -12 -130 -31 -130 -37 0 -7 241 -475 249 -484 6 -7
256 466 256 486 0 32 -260 57 -375 35z"/>
</g>
</svg>